<svg xmlns="http://www.w3.org/2000/svg" viewBox="0 0 418.51 165.46"><defs><style>.cls-1{fill:#fff;}.cls-2{fill:#d7a109;}</style></defs><g id="Layer_2" data-name="Layer 2"><g id="Layer_1-2" data-name="Layer 1"><path class="cls-1" d="M403.51,10A43.68,43.68,0,0,0,375.64,0l-7.71,0H280.87l-27.4,17.48V0H204.76L179.18,35.51,153.55,0H44.82A42.6,42.6,0,0,0,17,10,42,42,0,0,0,2.5,42.18V72.81A42,42,0,0,0,17,105a42.56,42.56,0,0,0,27.85,10H253.47V98.37L279.29,115h96.32a43.68,43.68,0,0,0,27.89-9.93,39.61,39.61,0,0,0,14.4-31V40.92A39.55,39.55,0,0,0,403.51,10ZM410.9,74.1A32.72,32.72,0,0,1,399,99.67,36.66,36.66,0,0,1,375.61,108H281.35L246.47,85.54V108H44.82A35.71,35.71,0,0,1,21.5,99.68a35,35,0,0,1-12-26.87V42.18a35,35,0,0,1,12-26.87A35.66,35.66,0,0,1,44.82,7H150l29.22,40.48L208.35,7h38.12V30.25L282.91,7h85l7.68,0A36.68,36.68,0,0,1,399,15.35,32.66,32.66,0,0,1,410.9,40.92Z"/><path class="cls-2" d="M375.61,21.7H330.52c-10,0-20.62,6.74-20.64,19.22V49.5c0,12.49,10.64,19.22,20.64,19.22H369a22.73,22.73,0,0,0,9.07-1.93V74.1c0,1.65-.49,3.35-4.12,3.35H332.81c-3.63,0-4.12-1.7-4.12-3.35l-.14-1.38-17.95.07-.06,1.31c0,12.49,10.63,19.22,20.63,19.22h44.44c10,0,20.62-6.74,20.63-19.23V40.92C396.24,28.44,385.61,21.7,375.61,21.7Zm-1.69,31.15H332.16c-3.64,0-4.13-1.7-4.13-3.35V40.92c0-1.65.49-3.35,4.13-3.35H374c3.63,0,4.12,1.7,4.12,3.35v6h0V49.5C378,51.15,377.55,52.85,373.92,52.85Z"/><path class="cls-2" d="M317.72,21.66H287.19l-44.3,28.27H231.8V21.66H218.87a5.24,5.24,0,0,0-5.24,5.23V93.33h18.18V65.81h11.08l42.77,27.52h30.85L261.12,57.87Z"/><polygon class="cls-2" points="179.2 72.55 142.48 21.66 126.59 21.66 126.59 93.33 144.76 93.33 144.76 54.62 172.44 93.33 185.97 93.33 213.64 54.62 213.64 93.33 231.81 93.33 231.81 21.66 215.86 21.66 179.2 72.55"/><path class="cls-2" d="M122.64,47.06V42.18a20.38,20.38,0,0,0-6.82-15.69A21.22,21.22,0,0,0,102,21.66H44.82A21.18,21.18,0,0,0,31,26.49a20.33,20.33,0,0,0-6.82,15.69V72.8A20.36,20.36,0,0,0,31,88.5a21.18,21.18,0,0,0,13.83,4.83H102a21.22,21.22,0,0,0,13.84-4.83,20.4,20.4,0,0,0,6.82-15.71l-.14-20.39H70.66V68.28h33.82v5.18c0,2.25-.5,2.67-1,3.08a5.13,5.13,0,0,1-3.15.91H46.47a5.11,5.11,0,0,1-3.15-.91c-.48-.41-1-.83-1-3.08V41.52c0-2.25.5-2.67,1-3.08a5.18,5.18,0,0,1,3.15-.9h53.88a5.21,5.21,0,0,1,3.15.9c.48.41,1,.83,1,3.08l.09,5.63Z"/><path class="cls-1" d="M0,123.64v41.82H418.51V123.64Zm415.47,38.79H3V126.67H415.47Z"/><path class="cls-2" d="M106.58,146.4v.68a3.78,3.78,0,0,1-1.23,2.84,3.86,3.86,0,0,1-2.52.88H92.43a3.84,3.84,0,0,1-2.52-.88,3.7,3.7,0,0,1-1.23-2.85l0-.52h2.86v.65c0,.58.16.77.33.91a1.37,1.37,0,0,0,.87.27h9.73a1.39,1.39,0,0,0,.87-.27c.17-.14.33-.33.33-.91V146a.88.88,0,0,0-.32-.67,1.37,1.37,0,0,0-.87-.27H92.43a3.84,3.84,0,0,1-2.52-.88,3.62,3.62,0,0,1-1.22-2.67h0V141a3.7,3.7,0,0,1,1.23-2.85,3.9,3.9,0,0,1,2.52-.88h10a3.88,3.88,0,0,1,2.52.88,3.69,3.69,0,0,1,1.23,2.59v.13H103.3v-.12a.94.94,0,0,0-.33-.79,1.4,1.4,0,0,0-.88-.27H92.76a1.37,1.37,0,0,0-.87.27c-.17.14-.33.33-.33.91v.68c0,.57.16.76.33.9a1.37,1.37,0,0,0,.87.27h10.07a3.84,3.84,0,0,1,2.52.88A3.7,3.7,0,0,1,106.58,146.4Zm15.47,4.4H139.2v-2.42H124.91V145.2h13.42v-2.42H124.91v-3.14H139.2v-2.42H122.05ZM173.37,142l0-1a3.69,3.69,0,0,0-1.22-2.85,3.92,3.92,0,0,0-2.53-.88H158.21a3.88,3.88,0,0,0-2.52.88,3.7,3.7,0,0,0-1.23,2.85v6.12a3.7,3.7,0,0,0,1.23,2.85,3.83,3.83,0,0,0,2.52.88h11.43a3.87,3.87,0,0,0,2.53-.88,3.69,3.69,0,0,0,1.22-2.85l0-1h-2.85v1.17a1,1,0,0,1-.33.91,1.39,1.39,0,0,1-.87.27H158.54a1.37,1.37,0,0,1-.87-.27c-.18-.15-.33-.33-.33-.91v-6.38c0-.58.15-.76.33-.91a1.37,1.37,0,0,1,.87-.27h10.78a1.39,1.39,0,0,1,.87.27c.17.14.33.33.33.91V142ZM204,147.2c0,.58-.15.76-.33.91a1.37,1.37,0,0,1-.87.27h-9.93a1.39,1.39,0,0,1-.87-.27,1,1,0,0,1-.33-.91v-10h-2.87v9.85a3.69,3.69,0,0,0,1.22,2.85,3.87,3.87,0,0,0,2.53.88h10.58a3.83,3.83,0,0,0,2.52-.88,3.7,3.7,0,0,0,1.23-2.85v-9.85H204Zm36.2-6.25v1.61a3.81,3.81,0,0,1-.9,2.52,3.76,3.76,0,0,1,.9,2.51v3.21h-2.88v-3.34c0-.58-.16-.76-.33-.9a1.33,1.33,0,0,0-.87-.28H225.6v4.52h-2.87V137.22h13.73a3.92,3.92,0,0,1,2.53.88A3.7,3.7,0,0,1,240.22,141Zm-14.62,2.92h10.54a1.39,1.39,0,0,0,.87-.28c.17-.14.33-.32.33-.9v-1.87c0-.58-.16-.77-.33-.91a1.39,1.39,0,0,0-.87-.27H225.6ZM256,150.8h2.87V137.22H256Zm17.81-11.16h7.61V150.8h2.87V139.64h7.61v-2.42H273.8Zm47-2.42-5.68,5.28-5.63-5.24,0,0h-4l8.27,7.69v5.89h2.87v-5.89l8.26-7.69Z"/></g></g></svg>