<svg xmlns="http://www.w3.org/2000/svg" viewBox="0 0 419.09 166.97"><defs><style>.cls-1{fill:#fff;}.cls-2{fill:#d7a109;}</style></defs><g id="Layer_2" data-name="Layer 2"><g id="Layer_1-2" data-name="Layer 1"><path class="cls-1" d="M296.85,53l0,7.12,0,5.45L287,59.22ZM419.09,42.27V75.45c0,26.43-22.2,42.22-43.63,42.22H278.75l-24.08-15.5v15.5H103.44v0c-.53,0-1.06,0-1.6,0H44.68A43.89,43.89,0,0,1,16,107.38,43.33,43.33,0,0,1,1,74.15V43.53A43.34,43.34,0,0,1,16,10.29,43.94,43.94,0,0,1,44.68,0h57.16c.54,0,1.07,0,1.6,0V0H154.1L179,34.57,203.94,0h50.72V16.38L280.33,0h85.1L375.5,0C396.91,0,419.09,15.84,419.09,42.27Zm-9,0c0-20.8-17.6-33.23-34.63-33.23l-10,0H283L245.67,32.8V9H208.55L179,50,149.49,9H112.44v1.51A37.49,37.49,0,0,0,101.84,9H44.68a35,35,0,0,0-22.9,8.16A34.34,34.34,0,0,0,10,43.53V74.15a34.37,34.37,0,0,0,11.76,26.37,35,35,0,0,0,22.9,8.15h57.16a37.49,37.49,0,0,0,10.6-1.51v1.51h46.17V99.61l6.48,9.06H193l6.47-9v9h46.18v-23l35.73,23h94.06c17,0,34.61-12.42,34.63-33.22Z"/><path class="cls-2" d="M375.61,23.21H330.52c-10,0-20.62,6.74-20.64,19.23V51c0,12.49,10.64,19.23,20.64,19.23H369a22.73,22.73,0,0,0,9.07-1.93v7.3c0,1.66-.49,3.35-4.12,3.35H332.81c-3.63,0-4.12-1.69-4.12-3.35l-.14-1.37-17.95.06-.06,1.31c0,12.49,10.63,19.23,20.63,19.23h44.44c10,0,20.62-6.74,20.63-19.22V42.44C396.24,30,385.61,23.21,375.61,23.21Zm-1.69,31.15H332.16c-3.64,0-4.13-1.69-4.13-3.35V42.44c0-1.66.49-3.35,4.13-3.35H374c3.63,0,4.12,1.69,4.12,3.35v6.05h0V51C378,52.67,377.55,54.36,373.92,54.36Z"/><path class="cls-2" d="M317.72,23.17H287.19l-44.3,28.27H231.8V23.17H218.87a5.25,5.25,0,0,0-5.24,5.24V94.84h18.18V67.32h11.08l42.77,27.52h30.85L261.12,59.38Z"/><polygon class="cls-2" points="179.2 74.07 142.48 23.17 126.59 23.17 126.59 94.84 144.76 94.84 144.76 56.13 172.44 94.84 185.97 94.84 213.64 56.13 213.64 94.84 231.81 94.84 231.81 23.17 215.86 23.17 179.2 74.07"/><path class="cls-2" d="M122.64,48.57V43.7A20.36,20.36,0,0,0,115.83,28,21.18,21.18,0,0,0,102,23.17H44.82A21.14,21.14,0,0,0,31,28,20.33,20.33,0,0,0,24.17,43.7V74.32A20.36,20.36,0,0,0,31,90a21.18,21.18,0,0,0,13.83,4.83H102A21.22,21.22,0,0,0,115.83,90a20.37,20.37,0,0,0,6.82-15.71l-.14-20.39H70.66V69.79h33.82V75c0,2.25-.5,2.67-1,3.08a5.21,5.21,0,0,1-3.15.9H46.47a5.12,5.12,0,0,1-3.15-.9c-.48-.41-1-.83-1-3.08V43c0-2.25.5-2.67,1-3.08a5.11,5.11,0,0,1,3.15-.91h53.88a5.13,5.13,0,0,1,3.15.91c.48.41,1,.83,1,3.08l.09,5.62Z"/><path class="cls-1" d="M0,125.16V167H418.51V125.16Zm415.47,38.78H3V128.19H415.47Z"/><path class="cls-2" d="M106.58,147.91v.68a3.8,3.8,0,0,1-1.23,2.85,3.9,3.9,0,0,1-2.52.87H92.43a3.88,3.88,0,0,1-2.52-.87,3.71,3.71,0,0,1-1.23-2.85l0-.52h2.86v.65c0,.58.16.76.33.9a1.37,1.37,0,0,0,.87.28h9.73a1.39,1.39,0,0,0,.87-.28c.17-.14.33-.32.33-.9v-1.18a.88.88,0,0,0-.32-.67,1.43,1.43,0,0,0-.87-.27H92.43a3.88,3.88,0,0,1-2.52-.87,3.66,3.66,0,0,1-1.22-2.68h0v-.59a3.69,3.69,0,0,1,1.23-2.84,3.84,3.84,0,0,1,2.52-.88h10a3.83,3.83,0,0,1,2.52.88,3.65,3.65,0,0,1,1.23,2.58v.14H103.3v-.12a.94.94,0,0,0-.33-.79,1.4,1.4,0,0,0-.88-.27H92.76a1.37,1.37,0,0,0-.87.27c-.17.14-.33.33-.33.9V143c0,.58.16.76.33.9a1.32,1.32,0,0,0,.87.28h10.07a3.88,3.88,0,0,1,2.52.87A3.71,3.71,0,0,1,106.58,147.91Zm15.47,4.4H139.2V149.9H124.91v-3.19h13.42V144.3H124.91v-3.14H139.2v-2.42H122.05Zm51.32-8.8,0-1a3.72,3.72,0,0,0-1.22-2.85,3.9,3.9,0,0,0-2.53-.87H158.21a3.83,3.83,0,0,0-2.52.88,3.69,3.69,0,0,0-1.23,2.84v6.13a3.73,3.73,0,0,0,1.23,2.85,3.86,3.86,0,0,0,2.52.87h11.43a3.9,3.9,0,0,0,2.53-.87,3.71,3.71,0,0,0,1.22-2.86l0-1h-2.85v1.17c0,.58-.16.76-.33.9a1.39,1.39,0,0,1-.87.28H158.54a1.37,1.37,0,0,1-.87-.28c-.18-.14-.33-.32-.33-.9v-6.39c0-.57.15-.75.33-.9a1.37,1.37,0,0,1,.87-.27h10.78a1.39,1.39,0,0,1,.87.27c.17.14.33.33.33.9v1.18ZM204,148.72c0,.58-.15.76-.33.9a1.37,1.37,0,0,1-.87.28h-9.93a1.39,1.39,0,0,1-.87-.28c-.17-.14-.33-.32-.33-.9v-10h-2.87v9.85a3.7,3.7,0,0,0,1.22,2.85,3.9,3.9,0,0,0,2.53.87h10.58a3.86,3.86,0,0,0,2.52-.87,3.71,3.71,0,0,0,1.23-2.85v-9.85H204Zm36.2-6.26v1.61a3.79,3.79,0,0,1-.9,2.52,3.79,3.79,0,0,1,.9,2.52v3.2h-2.88V149c0-.57-.16-.76-.33-.9a1.39,1.39,0,0,0-.87-.27H225.6v4.51h-2.87V138.74h13.73a3.87,3.87,0,0,1,2.53.88A3.69,3.69,0,0,1,240.22,142.46Zm-14.62,2.92h10.54a1.39,1.39,0,0,0,.87-.27c.17-.14.33-.33.33-.91v-1.87c0-.57-.16-.76-.33-.9a1.39,1.39,0,0,0-.87-.27H225.6ZM256,152.31h2.87V138.74H256Zm17.81-11.15h7.61v11.15h2.87V141.16h7.61v-2.42H273.8Zm47-2.42L315.09,144l-5.63-5.25,0,0h-4l8.27,7.69v5.88h2.87v-5.88l8.26-7.69Z"/></g></g></svg>