<svg xmlns="http://www.w3.org/2000/svg" viewBox="0 0 419.49 167.05"><defs><style>.cls-1{fill:#9d9d9c;}.cls-2{fill:#b2b2b2;}</style></defs><g id="Layer_2" data-name="Layer 2"><g id="Layer_1-2" data-name="Layer 1"><path class="cls-1" d="M404.53,10.33a44.18,44.18,0,0,0-12.2-7.16A37.87,37.87,0,0,0,377.17,0H280.4L255.07,16.17V0H204L179.18,34.38,154.37,0h-51V0L102,0H44.82A44.2,44.2,0,0,0,15.94,10.35a43.55,43.55,0,0,0-15,33.42V74.4a43.56,43.56,0,0,0,15,33.42,44.15,44.15,0,0,0,28.88,10.35H255.07V102.89l23.76,15.28h96.78a45.25,45.25,0,0,0,28.91-10.29,41.14,41.14,0,0,0,15-32.18V42.52A41.12,41.12,0,0,0,404.53,10.33Z"/><path d="M399,16.94a36.66,36.66,0,0,0-23.43-8.31h-7.84l.06,0H282.91L246.48,31.85V8.59H208.35L179.19,49.08,150,8.59h-38v1.3A38.4,38.4,0,0,0,102,8.59H44.82A35.73,35.73,0,0,0,21.5,16.9a35,35,0,0,0-12,26.87V74.4a35,35,0,0,0,12,26.87,35.68,35.68,0,0,0,23.32,8.31H102a38,38,0,0,0,9.94-1.3v1.3h47.49v-7.66l5.48,7.66h28.6l5.47-7.65v7.65h47.51V87.14l34.87,22.44h94.26A36.65,36.65,0,0,0,399,101.27,32.67,32.67,0,0,0,410.9,75.7V42.52A32.66,32.66,0,0,0,399,16.94ZM296.17,64.46l-.29-.15-7.56-4.84,7.85-5,0,4.56Z"/><path class="cls-2" d="M375.61,23.29H330.52c-10,0-20.62,6.74-20.64,19.23v8.57c0,12.49,10.64,19.23,20.64,19.23H369a22.73,22.73,0,0,0,9.07-1.93v7.3c0,1.66-.49,3.35-4.12,3.35H332.81c-3.63,0-4.12-1.69-4.12-3.35l-.14-1.37-17.95.06-.06,1.31c0,12.49,10.63,19.23,20.63,19.23h44.44c10,0,20.62-6.74,20.63-19.22V42.52C396.24,30,385.61,23.29,375.61,23.29Zm-1.69,31.15H332.16c-3.64,0-4.13-1.69-4.13-3.35V42.52c0-1.66.49-3.35,4.13-3.35H374c3.63,0,4.12,1.69,4.12,3.35v6h0v2.52C378,52.75,377.55,54.44,373.92,54.44Z"/><path class="cls-2" d="M317.72,23.25H287.19l-44.3,28.27H231.8V23.25H218.87a5.25,5.25,0,0,0-5.24,5.24V94.92h18.18V67.4h11.08l42.77,27.52h30.85L261.12,59.46Z"/><polygon class="cls-2" points="179.2 74.14 142.48 23.25 126.59 23.25 126.59 94.92 144.76 94.92 144.76 56.21 172.44 94.92 185.97 94.92 213.64 56.21 213.64 94.92 231.81 94.92 231.81 23.25 215.86 23.25 179.2 74.14"/><path class="cls-2" d="M122.64,48.65V43.77a20.39,20.39,0,0,0-6.82-15.69A21.22,21.22,0,0,0,102,23.25H44.82A21.18,21.18,0,0,0,31,28.08a20.36,20.36,0,0,0-6.82,15.69V74.4A20.36,20.36,0,0,0,31,90.09a21.18,21.18,0,0,0,13.83,4.83H102a21.22,21.22,0,0,0,13.84-4.83,20.37,20.37,0,0,0,6.82-15.71L122.51,54H70.66V69.87h33.82v5.18c0,2.26-.5,2.68-1,3.08a5.13,5.13,0,0,1-3.15.91H46.47a5,5,0,0,1-3.15-.91c-.48-.4-1-.82-1-3.08V43.12c0-2.25.5-2.67,1-3.08a5.11,5.11,0,0,1,3.15-.91h53.88a5.13,5.13,0,0,1,3.15.91c.48.41,1,.83,1,3.08l.09,5.62Z"/><rect x="1.1" y="126.91" width="416.25" height="39.24"/><path class="cls-2" d="M0,125.23v41.82H418.51V125.23ZM415.47,164H3V128.27H415.47Z"/><path class="cls-2" d="M106.58,148v.68a3.8,3.8,0,0,1-1.23,2.85,3.9,3.9,0,0,1-2.52.87H92.43a3.88,3.88,0,0,1-2.52-.87,3.73,3.73,0,0,1-1.23-2.85l0-.53h2.86v.66c0,.58.16.76.33.9a1.37,1.37,0,0,0,.87.28h9.73a1.39,1.39,0,0,0,.87-.28c.17-.14.33-.32.33-.9v-1.18a.88.88,0,0,0-.32-.67,1.37,1.37,0,0,0-.87-.27H92.43a3.88,3.88,0,0,1-2.52-.87,3.66,3.66,0,0,1-1.22-2.68h0v-.59a3.69,3.69,0,0,1,1.23-2.84,3.84,3.84,0,0,1,2.52-.88h10a3.83,3.83,0,0,1,2.52.88,3.65,3.65,0,0,1,1.23,2.58v.14H103.3v-.12a.94.94,0,0,0-.33-.79,1.4,1.4,0,0,0-.88-.27H92.76a1.37,1.37,0,0,0-.87.27c-.17.14-.33.33-.33.9v.68c0,.58.16.76.33.9a1.37,1.37,0,0,0,.87.28h10.07a3.88,3.88,0,0,1,2.52.87A3.7,3.7,0,0,1,106.58,148Zm15.47,4.4H139.2V150H124.91v-3.19h13.42v-2.41H124.91v-3.14H139.2v-2.42H122.05Zm51.32-8.8,0-1.05a3.72,3.72,0,0,0-1.22-2.85,3.9,3.9,0,0,0-2.53-.87H158.21a3.83,3.83,0,0,0-2.52.88,3.69,3.69,0,0,0-1.23,2.84v6.13a3.73,3.73,0,0,0,1.23,2.85,3.86,3.86,0,0,0,2.52.87h11.43a3.9,3.9,0,0,0,2.53-.87,3.71,3.71,0,0,0,1.22-2.86l0-1h-2.85v1.18c0,.58-.16.76-.33.9a1.39,1.39,0,0,1-.87.28H158.54a1.37,1.37,0,0,1-.87-.28c-.18-.14-.33-.32-.33-.9v-6.39c0-.58.15-.76.33-.9a1.37,1.37,0,0,1,.87-.27h10.78a1.39,1.39,0,0,1,.87.27c.17.14.33.33.33.9v1.18ZM204,148.8c0,.58-.15.76-.33.9a1.37,1.37,0,0,1-.87.28h-9.93a1.39,1.39,0,0,1-.87-.28c-.17-.14-.33-.32-.33-.9v-10h-2.87v9.85a3.72,3.72,0,0,0,1.22,2.85,3.9,3.9,0,0,0,2.53.87h10.58a3.86,3.86,0,0,0,2.52-.87,3.73,3.73,0,0,0,1.23-2.85v-9.85H204Zm36.2-6.26v1.61a3.79,3.79,0,0,1-.9,2.52,3.79,3.79,0,0,1,.9,2.52v3.2h-2.88v-3.34c0-.57-.16-.76-.33-.9a1.39,1.39,0,0,0-.87-.27H225.6v4.51h-2.87V138.82h13.73a3.87,3.87,0,0,1,2.53.88A3.69,3.69,0,0,1,240.22,142.54Zm-14.62,2.92h10.54a1.39,1.39,0,0,0,.87-.27c.17-.14.33-.33.33-.91v-1.87c0-.58-.16-.76-.33-.9a1.39,1.39,0,0,0-.87-.27H225.6ZM256,152.39h2.87V138.82H256Zm17.81-11.15h7.61v11.15h2.87V141.24h7.61v-2.42H273.8Zm47-2.42-5.68,5.28-5.63-5.25,0,0h-4l8.27,7.69v5.88h2.87v-5.88l8.26-7.69Z"/></g></g></svg>